<svg xmlns="http://www.w3.org/2000/svg" width="480" height="376" viewBox="0 0 480 376" font-family="ui-monospace, SFMono-Regular, Menlo, Consolas, monospace"><defs><linearGradient id="ibg" x1="0" y1="0" x2="0" y2="1"><stop offset="0" stop-color="#111722"/><stop offset="1" stop-color="#0d1117"/></linearGradient></defs><rect width="480" height="376" rx="12" fill="url(#ibg)"/><rect x="0.5" y="0.5" width="479" height="375" rx="12" fill="none" stroke="#30363d"/><line x1="0" y1="30" x2="480" y2="30" stroke="#30363d"/><circle cx="20" cy="15.0" r="5" fill="#ff5f56"/><circle cx="36" cy="15.0" r="5" fill="#ffbd2e"/><circle cx="52" cy="15.0" r="5" fill="#27c93f"/><text x="240.0" y="19.0" fill="#7d8590" font-size="12" text-anchor="middle">neast@github: ~$ neofetch</text><g opacity="0" transform="translate(0,5)"><svg x="20.0" y="132.5" width="440.0" height="141.0" viewBox="0 0 3287 1053" preserveAspectRatio="xMidYMid meet" aria-hidden="true">
<path d="M1334.13 399.004H1442.55V448.421C1462.02 424.953 1481.95 408.877 1502.39 400.141C1522.84 391.405 1544.01 387.063 1565.95 387.063C1608.8 387.063 1641.23 399.159 1663.17 423.35C1685.11 447.542 1696.06 482.382 1696.06 527.766V789.789H1584.64V548.753C1584.64 523.786 1580.05 505.953 1570.8 495.253C1561.56 484.553 1547.52 479.177 1528.57 479.177C1517.62 479.177 1506.78 481.193 1496.04 485.173C1485.3 489.153 1475.96 495.408 1468.01 503.885C1460.52 511.38 1454.79 519.341 1450.82 527.818C1446.84 536.295 1444.83 547.306 1444.83 560.745V789.789H1334.18V399.004H1334.13Z" fill="white"/>
<path d="M1736.38 598.118C1736.38 553.198 1744.33 515.05 1760.29 483.571C1776.24 452.142 1798.65 428.158 1827.56 411.72C1856.48 395.23 1890.4 387.011 1929.27 387.011C1989.58 387.011 2035.07 404.742 2065.73 440.15C2096.4 475.61 2111.74 523.011 2111.74 582.404V619.105H1844.03C1848.52 687.492 1876.66 721.66 1928.55 721.66C1951.99 721.66 1969.44 717.163 1980.9 708.168C1992.37 699.174 2000.11 686.717 2004.09 670.744H2108.02C2100.53 712.666 2082.1 744.972 2052.67 767.665C2023.24 790.357 1982.4 801.729 1930.05 801.729C1867.73 801.729 1819.87 783.999 1786.52 748.591C1753.11 713.183 1736.43 662.99 1736.43 598.118H1736.38ZM1988.75 488.429C1978.01 473.232 1958.19 465.582 1929.33 465.582C1900.46 465.582 1880.48 473.439 1867.99 489.153C1855.49 504.867 1847.8 526.939 1844.81 555.421H2007.08C2005.58 525.957 1999.49 503.627 1988.75 488.429Z" fill="white"/>
<path d="M2133.42 681.961C2133.42 647.535 2142.51 620.966 2160.73 602.253C2178.91 583.541 2202.97 570.205 2232.86 562.193C2262.76 554.232 2295.18 549.735 2330.08 548.701L2386.15 546.479V532.264C2386.15 508.331 2381.14 491.066 2371.18 480.624C2361.21 470.131 2345.26 464.91 2323.32 464.91C2301.37 464.91 2285.78 468.787 2275.1 476.489C2264.36 484.242 2257.28 495.563 2253.77 510.553L2154.33 501.559C2161.3 462.636 2179.27 433.792 2208.18 415.08C2237.1 396.368 2276.49 387.011 2326.31 387.011C2385.12 387.011 2427.51 400.244 2453.43 426.71C2479.35 453.176 2492.3 492.1 2492.3 543.481V789.789H2389.87V744.145C2374.43 761.1 2356.83 774.592 2337.15 784.568C2317.48 794.544 2293.68 799.558 2265.75 799.558C2226.36 799.558 2194.45 789.324 2170.03 768.854C2145.61 748.384 2133.37 719.437 2133.37 682.013L2133.42 681.961ZM2238.85 675.241C2238.85 689.715 2243.19 701.087 2251.91 709.306C2260.64 717.525 2274.73 721.66 2294.15 721.66C2322.08 721.66 2344.38 714.423 2361.06 699.95C2377.74 685.476 2386.1 665.265 2386.1 639.316V612.385L2334.52 614.608C2298.64 616.107 2273.7 621.844 2259.76 631.821C2245.82 641.797 2238.85 656.271 2238.85 675.241Z" fill="white"/>
<path d="M2768.99 679.738C2768.99 668.263 2765.64 658.803 2758.87 651.308C2752.11 643.813 2738.53 638.334 2718.14 634.819L2674.04 627.324C2625.2 618.846 2589.06 605.613 2565.62 587.625C2542.18 569.636 2530.46 542.705 2530.46 506.78C2530.46 468.839 2545.79 439.426 2576.46 418.44C2607.13 397.453 2647.87 387.011 2698.72 387.011C2754.07 387.011 2794.91 397.246 2821.35 417.716C2847.78 438.186 2864.46 465.634 2871.43 500.06L2768.27 511.277C2763.78 495.304 2756.55 483.209 2746.58 474.99C2736.62 466.771 2720.67 462.636 2698.72 462.636C2675.28 462.636 2658.81 466.616 2649.36 474.628C2639.86 482.64 2635.17 492.1 2635.17 503.058C2635.17 514.017 2638.88 523.631 2646.37 530.403C2653.86 537.174 2668.31 542.498 2689.74 546.479L2738.32 554.697C2789.64 564.209 2825.68 578.165 2846.39 596.619C2867.04 615.073 2877.42 642.521 2877.42 678.963C2877.42 715.405 2863.06 746.833 2834.41 768.802C2805.75 790.771 2763.26 801.729 2706.93 801.729C2650.6 801.729 2608.99 791.236 2576.1 770.301C2543.21 749.366 2524.99 715.922 2521.53 669.969H2627.68C2631.14 688.939 2639.3 702.431 2652 710.391C2664.7 718.403 2682.51 722.383 2705.43 722.383C2728.36 722.383 2745.29 718.507 2754.79 710.805C2764.24 703.051 2768.99 692.713 2768.99 679.738Z" fill="white"/>
<path d="M0 0V1053H1051.76V0H0ZM551.465 165.67C551.465 164.585 552.446 163.654 553.633 163.654H912.361C913.549 163.654 914.53 164.533 914.53 165.67V649.964C914.53 651.773 912.207 652.652 910.864 651.36L730.571 483.105C730.158 482.743 729.951 482.227 729.951 481.71V337.698C729.951 336.613 728.97 335.682 727.783 335.682H553.633C552.446 335.682 551.465 334.803 551.465 333.666V165.618V165.67ZM498.905 887.33C498.905 888.415 497.924 889.346 496.736 889.346H138.008C136.821 889.346 135.84 888.467 135.84 887.33V431.776C135.84 429.967 138.163 429.088 139.505 430.38L319.799 598.635C320.212 598.997 320.418 599.514 320.418 600.031V715.302C320.418 716.387 321.399 717.318 322.587 717.318H496.736C497.924 717.318 498.905 718.197 498.905 719.334V887.382V887.33ZM915.924 887.33C915.924 888.415 914.943 889.346 913.755 889.346H750.913C750.345 889.346 749.777 889.139 749.364 888.777L139.351 320.175C138.937 319.813 138.731 319.296 138.731 318.779V167.014C138.731 165.929 139.712 164.998 140.899 164.998H289.337C289.905 164.998 290.473 165.205 290.886 165.567L915.356 747.557C915.769 747.919 915.976 748.436 915.976 748.953V887.278L915.924 887.33Z" fill="white"/>
<path d="M3200.62 340.128C3200.62 333.304 3201.76 327.101 3203.98 321.57C3206.2 316.04 3209.3 311.284 3213.22 307.355C3217.14 303.375 3221.74 300.325 3227.01 298.206C3232.27 296.087 3237.95 295.001 3243.99 295.001C3252.51 295.001 3260 296.862 3266.45 300.636C3272.9 304.409 3277.91 309.63 3281.58 316.401C3285.19 323.173 3287 331.082 3287 340.179C3287 349.277 3285.09 357.237 3281.32 363.957C3277.55 370.729 3272.39 375.95 3265.88 379.723C3259.38 383.496 3252.1 385.357 3244.04 385.357C3235.52 385.357 3227.99 383.496 3221.48 379.723C3214.98 375.95 3209.86 370.729 3206.2 363.957C3202.53 357.186 3200.73 349.277 3200.73 340.179L3200.62 340.128ZM3210.48 340.128C3210.48 347.364 3211.88 353.774 3214.72 359.253C3217.56 364.733 3221.48 368.971 3226.49 371.969C3231.5 374.967 3237.28 376.466 3243.89 376.466C3250.5 376.466 3256.13 374.967 3261.13 371.969C3266.14 368.971 3270.07 364.733 3272.96 359.253C3275.8 353.774 3277.24 347.416 3277.24 340.128C3277.24 332.839 3275.8 326.429 3272.96 321.002C3270.07 315.626 3266.14 311.387 3261.13 308.389C3256.13 305.391 3250.39 303.892 3243.89 303.892C3237.38 303.892 3231.5 305.391 3226.49 308.389C3221.48 311.387 3217.56 315.574 3214.72 321.002C3211.88 326.378 3210.48 332.787 3210.48 340.128ZM3221.07 340.386C3221.07 332.736 3223.13 326.533 3227.32 321.932C3231.5 317.28 3237.18 314.954 3244.46 314.954C3250.34 314.954 3254.99 316.401 3258.29 319.296C3261.6 322.191 3263.71 326.171 3264.54 331.237L3254.32 332.891C3253.75 330.048 3252.61 327.825 3251.01 326.326C3249.41 324.827 3247.14 324.052 3244.2 324.052C3239.81 324.052 3236.71 325.602 3234.85 328.756C3232.99 331.857 3232.07 335.682 3232.07 340.128C3232.07 344.573 3232.99 348.398 3234.85 351.603C3236.71 354.756 3239.81 356.359 3244.2 356.359C3247.14 356.359 3249.57 355.583 3251.43 354.084C3253.29 352.585 3254.47 350.259 3254.99 347.106H3265.47C3264.7 352.74 3262.58 357.237 3259.02 360.494C3255.45 363.802 3250.5 365.405 3244.1 365.405C3236.66 365.405 3230.98 363.13 3227.01 358.633C3223.03 354.136 3221.07 348.036 3221.07 340.334V340.386Z" fill="white"/>
<path d="M3145.07 700.673C3138.56 702.689 3131.75 704.292 3124.52 705.532C3117.29 706.773 3109.44 707.393 3100.98 707.393C3085.02 707.393 3073.3 702.793 3065.82 693.54C3058.33 684.287 3054.61 671.468 3054.61 654.978V485.793H3146.57V398.952H3054.61V294.898H2943.19V398.952H2881.13V485.793L2998.49 485.845L2978.3 525.802H2943.19V650.481C2943.19 698.399 2952.43 734.841 2970.87 759.756C2989.3 784.723 3022.7 797.181 3071.08 797.181C3088.53 797.181 3104.23 795.94 3118.17 793.459C3132.11 790.978 3146.1 787.463 3160.04 782.966L3145.07 700.621V700.673Z" fill="white"/>
</svg><animate attributeName="opacity" from="0" to="1" begin="0.15s" dur="0.4s" fill="freeze"/><animateTransform attributeName="transform" type="translate" from="0 5" to="0 0" begin="0.15s" dur="0.4s" fill="freeze" calcMode="spline" keySplines="0.2 0.8 0.2 1"/></g></svg>
